<?xml version="1.0" encoding="utf-8"?>
<!-- Generator: Adobe Illustrator 19.0.0, SVG Export Plug-In . SVG Version: 6.00 Build 0)  -->
<svg version="1.1" id="Layer_1" xmlns="http://www.w3.org/2000/svg" xmlns:xlink="http://www.w3.org/1999/xlink" x="0px" y="0px"
	 viewBox="0 0 425 289" style="enable-background:new 0 0 425 289;" xml:space="preserve">
<style type="text/css">
	.st0{fill:#E9165C;}
</style>
<g id="XMLID_20_">
	<path id="XMLID_29_" class="st0" d="M354.8,142.5L216.1,4.2c-3.3-3.2-8.9-3.2-12.1,0L72.1,136.5c-3.9,4-4,10.4,0,14.4
		c24.8,24.9,107.7,108.3,132.6,133.9c1.6,1.6,3.7,2.5,5.9,2.5c2.1,0,4.4-0.8,6-2.4l138.2-137.6c0.6-0.6,1-1.5,1-2.4
		C355.8,144,355.5,143.1,354.8,142.5z M332.6,149.1L218.3,263c0,0,0,0-0.1,0.1c-2.7,2.7-6.9,3.3-10.6,2c-1.5-0.5-3.2-1.3-4.1-2.2
		c-20.4-21.1-89.1-90.1-109.6-110.7c-4.6-4.6-4.6-12.1,0-16.7l107-107.3c5.2-5.2,13.8-5.3,19,0l112.7,112.3c1.2,1.2,1.8,2.7,1.8,4.4
		S333.8,148,332.6,149.1z"/>
	<g id="XMLID_10_">
		<path id="XMLID_17_" class="st0" d="M209.2,82.1l6.2,0c1.2,0,2.2,1,2.2,2.2l0.3,120.3c0,1.2-1,2.2-2.2,2.2l-6.4,0.1
			c-1.2,0-2.2-1-2.2-2.2L207,84.3C207,83.1,207.9,82.1,209.2,82.1z"/>
		<g id="XMLID_14_">
			<path id="XMLID_16_" class="st0" d="M171.7,87.2l29.1,17.9c0.6,0.4,1.1,1,1.2,1.7c0.6,2.4,1.2,7.7-5.1,7.4
				c-7.2-0.3-25.2-13.9-28.9-16.8c-0.7-0.5-1.6-0.7-2.4-0.5c-0.8,0.2-1.6,0.9-1.4,2.8c0.3,3.6,0.3,87.9,0.3,87.9s-0.3,4.9,5.4,1.8
				c5.1-2.8,20.1-11.6,23.4-13.5c0.4-0.3,0.9-0.4,1.4-0.4c2.2,0,8,0.8,5.1,7.5c-0.2,0.5-0.5,0.9-1,1.2c-8.7,6-28.9,16.7-32.3,18.6
				c-0.4,0.2-0.8,0.3-1.2,0.3c-2.5,0.1-11.7-0.2-11.9-10.7c-0.2-11.7,0.1-92.2,0.2-97.9c0-0.2,0-0.5,0.1-0.7c0.5-1.9,3.6-9.8,17-6.8
				C171.1,86.9,171.4,87,171.7,87.2z"/>
			<path id="XMLID_15_" class="st0" d="M194.2,125l4.9,0c1.1,0,2,0.9,2,2l0.1,35.1c0,1.1-0.9,2-2,2l-4.9,0c-1.1,0-2-0.9-2-2
				c0-6.7,0-28.4,0-35C192.2,125.9,193.1,125,194.2,125z"/>
		</g>
		<g id="XMLID_11_">
			<path id="XMLID_13_" class="st0" d="M253,87l-29.1,18c-0.6,0.4-1.1,1-1.2,1.7c-0.6,2.4-1.2,7.7,5.1,7.4
				c7.2-0.3,25.2-14,28.9-16.9c0.7-0.5,1.5-0.7,2.4-0.5c0.8,0.2,1.6,0.9,1.4,2.7c-0.3,3.6,0,87.9,0,87.9s0.3,4.9-5.4,1.8
				c-5.1-2.8-20.2-11.5-23.4-13.4c-0.4-0.3-0.9-0.4-1.4-0.4c-2.2,0-8,0.8-5.1,7.5c0.2,0.5,0.5,0.9,1,1.2
				c8.7,5.9,28.9,16.6,32.4,18.5c0.4,0.2,0.8,0.3,1.2,0.3c2.5,0.1,11.7-0.3,11.8-10.7c0.1-11.7-0.4-92.2-0.5-97.9
				c0-0.2,0-0.5-0.1-0.7c-0.5-1.9-3.6-9.8-17-6.7C253.5,86.8,253.3,86.9,253,87z"/>
			<path id="XMLID_12_" class="st0" d="M225.8,125l4.9,0c1.1,0,2,0.9,2,2l0.1,35.1c0,1.1-0.9,2-2,2l-4.9,0c-1.1,0-2-0.9-2-2
				c0-6.7,0-28.4,0-35C223.9,125.9,224.7,125,225.8,125z"/>
		</g>
	</g>
</g>
</svg>
